<svg width="185" height="62" viewBox="0 0 185 62" fill="none" xmlns="http://www.w3.org/2000/svg">
<g clip-path="url(#clip0_3670_1550)">
<path d="M170.268 0H14.741C14.1736 0 13.6124 0 13.0481 0.0031C12.575 0.0062 12.1051 0.0155 11.6274 0.02325C10.5893 0.0346151 9.55353 0.125294 8.52918 0.2945C7.50685 0.468421 6.51656 0.796062 5.59178 1.26635C4.66683 1.7412 3.82176 2.35834 3.08727 3.09535C2.35023 3.829 1.73582 4.67685 1.26764 5.60635C0.797774 6.53456 0.471941 7.52923 0.301388 8.556C0.129362 9.58165 0.0368407 10.6191 0.0246548 11.6591C0.00919482 12.1349 0.00919482 12.6123 0.00146484 13.0866V48.918C0.00919482 49.3985 0.0107408 49.8635 0.0246548 50.3455C0.0373455 51.3856 0.130384 52.423 0.302934 53.4487C0.472387 54.4765 0.79772 55.4722 1.26764 56.4014C1.73626 57.3273 2.35127 58.1711 3.08882 58.9C3.81969 59.6395 4.66424 60.2565 5.59024 60.7275C6.51556 61.1987 7.50627 61.5279 8.52918 61.7039C9.55363 61.8728 10.5892 61.9645 11.6274 61.9783C12.1066 61.9891 12.575 61.9953 13.0481 61.9953C13.614 61.9985 14.1736 61.9984 14.741 61.9984H170.268C170.825 61.9984 171.387 61.9985 171.944 61.9953C172.414 61.9953 172.898 61.9891 173.369 61.9798C174.406 61.9662 175.439 61.874 176.461 61.7039C177.487 61.5266 178.482 61.1975 179.411 60.7275C180.337 60.2563 181.181 59.6393 181.911 58.9C182.647 58.1674 183.264 57.3232 183.738 56.3983C184.205 55.4686 184.528 54.4729 184.695 53.4455C184.867 52.4197 184.963 51.3825 184.981 50.3424C184.988 49.8619 184.988 49.3969 184.988 48.9149C185 48.3507 185 47.7911 185 47.2192V14.7808C185 14.2135 185 13.6493 184.988 13.0882C184.988 12.6139 184.988 12.1365 184.981 11.6622C184.963 10.6216 184.868 9.58387 184.695 8.55755C184.527 7.5313 184.204 6.53671 183.737 5.6079C182.783 3.74343 181.27 2.22562 179.411 1.2679C178.482 0.798672 177.487 0.471117 176.461 0.29605C175.439 0.125608 174.406 0.034405 173.369 0.02325C172.898 0.0155 172.414 0.0062 171.944 0.0031C171.387 0 170.823 0 170.268 0Z" fill="#173430"/>
<path d="M13.0559 60.6438C12.5844 60.6438 12.1252 60.6376 11.6583 60.6283C10.6897 60.6152 9.72338 60.5303 8.7673 60.3741C7.87655 60.22 7.01369 59.9338 6.20713 59.5247C5.40767 59.1192 4.67845 58.5875 4.04737 57.9499C3.40743 57.3192 2.87475 56.5877 2.47046 55.7845C2.06087 54.9765 1.77723 54.1103 1.62943 53.2162C1.47065 52.2553 1.38486 51.2838 1.3728 50.3099C1.36198 49.9844 1.34961 48.8948 1.34961 48.8948V13.0898C1.34961 13.0898 1.36352 12.0172 1.3728 11.7025C1.38432 10.7302 1.4696 9.76023 1.62789 8.80091C1.7757 7.90427 2.05932 7.03555 2.46891 6.22481C2.87197 5.42238 3.40188 4.69062 4.0381 4.05791C4.67343 3.41897 5.40482 2.88391 6.20558 2.47226C7.01049 2.06444 7.87195 1.7802 8.76111 1.62906C9.72019 1.47183 10.6897 1.38686 11.6614 1.37486L13.0559 1.35626H171.936L173.348 1.37641C174.31 1.38761 175.27 1.47155 176.22 1.62751C177.119 1.78053 177.989 2.0668 178.804 2.47691C180.408 3.30597 181.714 4.61758 182.537 6.22791C182.94 7.03321 183.219 7.89494 183.364 8.78386C183.525 9.75095 183.615 10.7285 183.633 11.7087C183.638 12.1474 183.638 12.6201 183.638 13.0882C183.65 13.6695 183.65 14.2228 183.65 14.7808V47.2208C183.65 47.7834 183.65 48.3337 183.638 48.887C183.638 49.3908 183.638 49.8527 183.632 50.3285C183.614 51.291 183.526 52.251 183.369 53.2007C183.225 54.1013 182.943 54.9743 182.534 55.7892C182.126 56.5836 181.596 57.3086 180.963 57.9375C180.331 58.5786 179.601 59.1135 178.799 59.5216C177.987 59.934 177.118 60.2213 176.22 60.3741C175.265 60.5305 174.299 60.6149 173.331 60.6267C172.878 60.6376 172.403 60.6438 171.944 60.6438L170.268 60.6469L13.0559 60.6438Z" fill="black"/>
<path d="M38.2926 31.465C38.3094 30.1716 38.6522 28.9035 39.289 27.7786C39.9258 26.6537 40.836 25.7085 41.9349 25.0309C41.2368 24.0311 40.3157 23.2082 39.245 22.6276C38.1742 22.047 36.9832 21.7246 35.7664 21.686C33.1692 21.4132 30.6523 23.2438 29.3289 23.2438C27.9808 23.2438 25.9432 21.7124 23.751 21.7589C22.3322 21.8048 20.9495 22.2184 19.7376 22.9595C18.5257 23.7005 17.5259 24.7437 16.8357 25.9873C13.8458 31.1767 16.0766 38.8042 18.9398 43.0001C20.373 45.0538 22.0473 47.3478 24.2395 47.2672C26.3838 47.1773 27.1846 45.8955 29.7742 45.8955C32.3374 45.8955 33.0888 47.2672 35.3243 47.2161C37.6263 47.1773 39.0749 45.1515 40.457 43.0776C41.4874 41.6142 42.2805 39.9967 42.8069 38.285C41.4696 37.7182 40.3284 36.7692 39.5256 35.5564C38.7228 34.3436 38.294 32.9206 38.2926 31.465ZM34.0689 18.9255C35.3236 17.4159 35.942 15.4753 35.7927 13.516C33.8756 13.7178 32.1047 14.6365 30.8332 16.089C30.2116 16.7981 29.7355 17.623 29.432 18.5166C29.1286 19.4102 29.0037 20.355 29.0645 21.297C30.0233 21.3069 30.9717 21.0986 31.8386 20.6879C32.7054 20.2771 33.468 19.6745 34.0689 18.9255Z" fill="white"/>
<path d="M65.3987 42.067H58.0831L56.3253 47.2688H53.2256L60.1578 28.0209H63.3781L70.3088 47.2688H67.1565L65.3987 42.067ZM58.8391 39.6645H64.6397L61.7796 31.2232H61.7007L58.8391 39.6645ZM85.2772 40.2535C85.2772 44.6136 82.9489 47.4145 79.4348 47.4145C78.5452 47.461 77.6605 47.2555 76.8819 46.8216C76.1032 46.3877 75.4621 45.7429 75.0319 44.9608H74.9654V51.911H72.0898V33.2351H74.8726V35.5694H74.9236C75.3736 34.7907 76.0257 34.1489 76.8106 33.7122C77.5954 33.2756 78.4836 33.0603 79.3807 33.0894C82.9334 33.0894 85.2772 35.9042 85.2772 40.2535ZM82.3243 40.2535C82.3243 37.4123 80.8587 35.5446 78.6247 35.5446C76.4294 35.5446 74.953 37.4511 74.953 40.2535C74.953 43.0807 76.4294 44.9748 78.6247 44.9748C80.8587 44.9748 82.3243 43.1194 82.3243 40.2535ZM100.683 40.2535C100.683 44.6136 98.3547 47.4145 94.8407 47.4145C93.9511 47.461 93.0664 47.2555 92.2877 46.8216C91.5091 46.3877 90.868 45.7429 90.4377 44.9608H90.3712V51.911H87.4972V33.2351H90.2785V35.5694H90.331C90.781 34.7907 91.4331 34.1489 92.218 33.7122C93.0028 33.2756 93.891 33.0603 94.7881 33.0894C98.3408 33.0894 100.683 35.9042 100.683 40.2535ZM97.7302 40.2535C97.7302 37.4123 96.2645 35.5446 94.0306 35.5446C91.8353 35.5446 90.3588 37.4511 90.3588 40.2535C90.3588 43.0807 91.8353 44.9748 94.0306 44.9748C96.2645 44.9748 97.7302 43.1194 97.7302 40.2535ZM110.863 41.9058C111.077 43.8154 112.926 45.0678 115.455 45.0678C117.876 45.0678 119.618 43.8154 119.618 42.0933C119.618 40.5991 118.567 39.7063 116.078 39.0925L113.591 38.4911C110.066 37.6386 108.428 35.9848 108.428 33.3017C108.428 29.9816 111.315 27.7 115.415 27.7C119.471 27.7 122.253 29.9816 122.345 33.3017H119.445C119.272 31.3813 117.689 30.2219 115.373 30.2219C113.057 30.2219 111.476 31.3952 111.476 33.1018C111.476 34.4627 112.487 35.264 114.962 35.8763L117.077 36.3971C121.016 37.3317 122.652 38.9174 122.652 41.7337C122.652 45.3344 119.792 47.5896 115.242 47.5896C110.984 47.5896 108.108 45.3886 107.923 41.9058H110.863ZM128.853 29.915V33.2351H131.515V35.5167H128.853V43.2527C128.853 44.4555 129.386 45.0151 130.556 45.0151C130.872 45.0095 131.187 44.9873 131.501 44.9484V47.2161C130.975 47.3146 130.44 47.3593 129.905 47.3494C127.072 47.3494 125.966 46.2814 125.966 43.5596V35.5167H123.932V33.2351H125.966V29.915H128.853ZM133.056 40.2535C133.056 35.8375 135.65 33.063 139.695 33.063C143.753 33.063 146.335 35.8375 146.335 40.2535C146.335 44.6803 143.767 47.4424 139.695 47.4424C135.624 47.4424 133.056 44.6803 133.056 40.2535ZM143.407 40.2535C143.407 37.2248 142.023 35.4361 139.695 35.4361C137.366 35.4361 135.984 37.2372 135.984 40.2535C135.984 43.2946 137.366 45.0678 139.695 45.0678C142.023 45.0678 143.407 43.2946 143.407 40.2535ZM148.703 33.2351H151.444V35.6236H151.511C151.696 34.8781 152.132 34.2194 152.745 33.7579C153.358 33.2965 154.11 33.0604 154.876 33.0894C155.208 33.088 155.538 33.1239 155.861 33.1963V35.8902C155.443 35.7623 155.007 35.7037 154.57 35.7166C154.153 35.6996 153.737 35.7734 153.35 35.9329C152.964 36.0923 152.617 36.3337 152.332 36.6404C152.048 36.9471 151.833 37.312 151.702 37.7098C151.572 38.1077 151.528 38.5291 151.576 38.9453V47.2688H148.703V33.2351ZM169.107 43.1473C168.721 45.694 166.247 47.4424 163.081 47.4424C159.009 47.4424 156.481 44.7082 156.481 40.3201C156.481 35.9181 159.023 33.063 162.959 33.063C166.833 33.063 169.266 35.729 169.266 39.9853V40.9727H159.381V41.1463C159.336 41.6628 159.4 42.183 159.571 42.6725C159.741 43.1621 160.014 43.6096 160.37 43.9855C160.726 44.3614 161.158 44.657 161.637 44.8527C162.116 45.0484 162.631 45.1397 163.147 45.1205C163.826 45.1841 164.507 45.0265 165.089 44.671C165.671 44.3155 166.124 43.7811 166.379 43.1473H169.107ZM159.395 38.9592H166.392C166.418 38.4949 166.348 38.0303 166.187 37.5944C166.025 37.1585 165.775 36.7609 165.453 36.4264C165.13 36.092 164.743 35.8279 164.314 35.6508C163.885 35.4737 163.424 35.3874 162.96 35.3973C162.492 35.3945 162.029 35.4846 161.596 35.6624C161.163 35.8402 160.769 36.1023 160.437 36.4334C160.106 36.7646 159.843 37.1583 159.664 37.5918C159.486 38.0253 159.394 38.4901 159.395 38.9592Z" fill="white"/>
<path d="M54.1395 10.29H58.8645C59.6245 10.29 60.2445 10.4 60.7245 10.62C61.2045 10.84 61.5745 11.115 61.8345 11.445C62.0945 11.775 62.2695 12.135 62.3595 12.525C62.4595 12.915 62.5095 13.275 62.5095 13.605C62.5095 13.935 62.4595 14.295 62.3595 14.685C62.2695 15.065 62.0945 15.42 61.8345 15.75C61.5745 16.08 61.2045 16.355 60.7245 16.575C60.2445 16.785 59.6245 16.89 58.8645 16.89H56.0145V21H54.1395V10.29ZM56.0145 15.36H58.7595C58.9695 15.36 59.1845 15.33 59.4045 15.27C59.6245 15.21 59.8245 15.115 60.0045 14.985C60.1945 14.845 60.3445 14.665 60.4545 14.445C60.5745 14.215 60.6345 13.93 60.6345 13.59C60.6345 13.24 60.5845 12.95 60.4845 12.72C60.3845 12.49 60.2495 12.31 60.0795 12.18C59.9095 12.04 59.7145 11.945 59.4945 11.895C59.2745 11.845 59.0395 11.82 58.7895 11.82H56.0145V15.36ZM63.7544 13.245H65.3594V14.745H65.3894C65.4394 14.535 65.5344 14.33 65.6744 14.13C65.8244 13.93 65.9994 13.75 66.1994 13.59C66.4094 13.42 66.6394 13.285 66.8894 13.185C67.1394 13.085 67.3944 13.035 67.6544 13.035C67.8544 13.035 67.9894 13.04 68.0594 13.05C68.1394 13.06 68.2194 13.07 68.2994 13.08V14.73C68.1794 14.71 68.0544 14.695 67.9244 14.685C67.8044 14.665 67.6844 14.655 67.5644 14.655C67.2744 14.655 66.9994 14.715 66.7394 14.835C66.4894 14.945 66.2694 15.115 66.0794 15.345C65.8894 15.565 65.7394 15.84 65.6294 16.17C65.5194 16.5 65.4644 16.88 65.4644 17.31V21H63.7544V13.245ZM73.9392 16.44C73.9192 16.17 73.8592 15.91 73.7592 15.66C73.6692 15.41 73.5392 15.195 73.3692 15.015C73.2092 14.825 73.0092 14.675 72.7692 14.565C72.5392 14.445 72.2792 14.385 71.9892 14.385C71.6892 14.385 71.4142 14.44 71.1642 14.55C70.9242 14.65 70.7142 14.795 70.5342 14.985C70.3642 15.165 70.2242 15.38 70.1142 15.63C70.0142 15.88 69.9592 16.15 69.9492 16.44H73.9392ZM69.9492 17.565C69.9492 17.865 69.9892 18.155 70.0692 18.435C70.1592 18.715 70.2892 18.96 70.4592 19.17C70.6292 19.38 70.8442 19.55 71.1042 19.68C71.3642 19.8 71.6742 19.86 72.0342 19.86C72.5342 19.86 72.9342 19.755 73.2342 19.545C73.5442 19.325 73.7742 19 73.9242 18.57H75.5442C75.4542 18.99 75.2992 19.365 75.0792 19.695C74.8592 20.025 74.5942 20.305 74.2842 20.535C73.9742 20.755 73.6242 20.92 73.2342 21.03C72.8542 21.15 72.4542 21.21 72.0342 21.21C71.4242 21.21 70.8842 21.11 70.4142 20.91C69.9442 20.71 69.5442 20.43 69.2142 20.07C68.8942 19.71 68.6492 19.28 68.4792 18.78C68.3192 18.28 68.2392 17.73 68.2392 17.13C68.2392 16.58 68.3242 16.06 68.4942 15.57C68.6742 15.07 68.9242 14.635 69.2442 14.265C69.5742 13.885 69.9692 13.585 70.4292 13.365C70.8892 13.145 71.4092 13.035 71.9892 13.035C72.5992 13.035 73.1442 13.165 73.6242 13.425C74.1142 13.675 74.5192 14.01 74.8392 14.43C75.1592 14.85 75.3892 15.335 75.5292 15.885C75.6792 16.425 75.7192 16.985 75.6492 17.565H69.9492ZM83.6091 21H81.9291V19.92H81.8991C81.6891 20.31 81.3741 20.625 80.9541 20.865C80.5441 21.095 80.1241 21.21 79.6941 21.21C78.6741 21.21 77.9341 20.96 77.4741 20.46C77.0241 19.95 76.7991 19.185 76.7991 18.165V13.245H78.5091V18C78.5091 18.68 78.6391 19.16 78.8991 19.44C79.1591 19.72 79.5241 19.86 79.9941 19.86C80.3541 19.86 80.6541 19.805 80.8941 19.695C81.1341 19.585 81.3291 19.44 81.4791 19.26C81.6291 19.07 81.7341 18.845 81.7941 18.585C81.8641 18.325 81.8991 18.045 81.8991 17.745V13.245H83.6091V21ZM84.9924 13.245H91.2924V14.445L86.8524 19.65H91.5174V21H84.6924V19.8L88.9824 14.595H84.9924V13.245ZM92.6124 13.245H94.2324V14.325H94.2774C94.4074 14.135 94.5474 13.96 94.6974 13.8C94.8474 13.64 95.0124 13.505 95.1924 13.395C95.3824 13.285 95.5974 13.2 95.8374 13.14C96.0774 13.07 96.3524 13.035 96.6624 13.035C97.1324 13.035 97.5674 13.14 97.9674 13.35C98.3774 13.56 98.6674 13.885 98.8374 14.325C99.1274 13.925 99.4624 13.61 99.8424 13.38C100.222 13.15 100.697 13.035 101.267 13.035C102.087 13.035 102.722 13.235 103.172 13.635C103.632 14.035 103.862 14.705 103.862 15.645V21H102.152V16.47C102.152 16.16 102.142 15.88 102.122 15.63C102.102 15.37 102.042 15.15 101.942 14.97C101.852 14.78 101.712 14.635 101.522 14.535C101.332 14.435 101.072 14.385 100.742 14.385C100.162 14.385 99.7424 14.565 99.4824 14.925C99.2224 15.285 99.0924 15.795 99.0924 16.455V21H97.3824V16.02C97.3824 15.48 97.2824 15.075 97.0824 14.805C96.8924 14.525 96.5374 14.385 96.0174 14.385C95.7974 14.385 95.5824 14.43 95.3724 14.52C95.1724 14.61 94.9924 14.74 94.8324 14.91C94.6824 15.08 94.5574 15.29 94.4574 15.54C94.3674 15.79 94.3224 16.075 94.3224 16.395V21H92.6124V13.245ZM105.559 10.29H107.269V11.91H105.559V10.29ZM105.559 13.245H107.269V21H105.559V13.245ZM113.247 10.29H120.642V11.91H115.122V14.715H119.967V16.245H115.122V21H113.247V10.29ZM121.794 10.29H123.504V11.91H121.794V10.29ZM121.794 13.245H123.504V21H121.794V13.245ZM124.437 13.245H125.727V10.92H127.437V13.245H128.982V14.52H127.437V18.66C127.437 18.84 127.442 18.995 127.452 19.125C127.472 19.255 127.507 19.365 127.557 19.455C127.617 19.545 127.702 19.615 127.812 19.665C127.922 19.705 128.072 19.725 128.262 19.725C128.382 19.725 128.502 19.725 128.622 19.725C128.742 19.715 128.862 19.695 128.982 19.665V20.985C128.792 21.005 128.607 21.025 128.427 21.045C128.247 21.065 128.062 21.075 127.872 21.075C127.422 21.075 127.057 21.035 126.777 20.955C126.507 20.865 126.292 20.74 126.132 20.58C125.982 20.41 125.877 20.2 125.817 19.95C125.767 19.7 125.737 19.415 125.727 19.095V14.52H124.437V13.245ZM129.207 13.245H131.082L133.107 19.035H133.137L135.102 13.245H136.887L133.872 21.42C133.732 21.77 133.592 22.105 133.452 22.425C133.322 22.745 133.157 23.025 132.957 23.265C132.767 23.515 132.527 23.71 132.237 23.85C131.947 24 131.577 24.075 131.127 24.075C130.727 24.075 130.332 24.045 129.942 23.985V22.545C130.082 22.565 130.217 22.585 130.347 22.605C130.477 22.635 130.612 22.65 130.752 22.65C130.952 22.65 131.117 22.625 131.247 22.575C131.377 22.525 131.482 22.45 131.562 22.35C131.652 22.26 131.727 22.15 131.787 22.02C131.847 21.89 131.902 21.74 131.952 21.57L132.147 20.97L129.207 13.245ZM144.82 10.29H146.815L150.94 21H148.93L147.925 18.165H143.65L142.645 21H140.71L144.82 10.29ZM144.16 16.74H147.43L145.825 12.135H145.78L144.16 16.74ZM151.615 13.245H153.235V14.295H153.265C153.505 13.845 153.84 13.525 154.27 13.335C154.7 13.135 155.165 13.035 155.665 13.035C156.275 13.035 156.805 13.145 157.255 13.365C157.715 13.575 158.095 13.87 158.395 14.25C158.695 14.62 158.92 15.055 159.07 15.555C159.22 16.055 159.295 16.59 159.295 17.16C159.295 17.68 159.225 18.185 159.085 18.675C158.955 19.165 158.75 19.6 158.47 19.98C158.2 20.35 157.855 20.65 157.435 20.88C157.015 21.1 156.52 21.21 155.95 21.21C155.7 21.21 155.45 21.185 155.2 21.135C154.95 21.095 154.71 21.025 154.48 20.925C154.25 20.825 154.035 20.7 153.835 20.55C153.645 20.39 153.485 20.205 153.355 19.995H153.325V23.865H151.615V13.245ZM157.585 17.13C157.585 16.78 157.54 16.44 157.45 16.11C157.36 15.78 157.225 15.49 157.045 15.24C156.865 14.98 156.64 14.775 156.37 14.625C156.1 14.465 155.79 14.385 155.44 14.385C154.72 14.385 154.175 14.635 153.805 15.135C153.445 15.635 153.265 16.3 153.265 17.13C153.265 17.52 153.31 17.885 153.4 18.225C153.5 18.555 153.645 18.84 153.835 19.08C154.025 19.32 154.25 19.51 154.51 19.65C154.78 19.79 155.09 19.86 155.44 19.86C155.83 19.86 156.16 19.78 156.43 19.62C156.7 19.46 156.92 19.255 157.09 19.005C157.27 18.745 157.395 18.455 157.465 18.135C157.545 17.805 157.585 17.47 157.585 17.13ZM160.635 13.245H162.255V14.295H162.285C162.525 13.845 162.86 13.525 163.29 13.335C163.72 13.135 164.185 13.035 164.685 13.035C165.295 13.035 165.825 13.145 166.275 13.365C166.735 13.575 167.115 13.87 167.415 14.25C167.715 14.62 167.94 15.055 168.09 15.555C168.24 16.055 168.315 16.59 168.315 17.16C168.315 17.68 168.245 18.185 168.105 18.675C167.975 19.165 167.77 19.6 167.49 19.98C167.22 20.35 166.875 20.65 166.455 20.88C166.035 21.1 165.54 21.21 164.97 21.21C164.72 21.21 164.47 21.185 164.22 21.135C163.97 21.095 163.73 21.025 163.5 20.925C163.27 20.825 163.055 20.7 162.855 20.55C162.665 20.39 162.505 20.205 162.375 19.995H162.345V23.865H160.635V13.245ZM166.605 17.13C166.605 16.78 166.56 16.44 166.47 16.11C166.38 15.78 166.245 15.49 166.065 15.24C165.885 14.98 165.66 14.775 165.39 14.625C165.12 14.465 164.81 14.385 164.46 14.385C163.74 14.385 163.195 14.635 162.825 15.135C162.465 15.635 162.285 16.3 162.285 17.13C162.285 17.52 162.33 17.885 162.42 18.225C162.52 18.555 162.665 18.84 162.855 19.08C163.045 19.32 163.27 19.51 163.53 19.65C163.8 19.79 164.11 19.86 164.46 19.86C164.85 19.86 165.18 19.78 165.45 19.62C165.72 19.46 165.94 19.255 166.11 19.005C166.29 18.745 166.415 18.455 166.485 18.135C166.565 17.805 166.605 17.47 166.605 17.13Z" fill="white"/>
</g>
<defs>
<clipPath id="clip0_3670_1550">
<rect width="185" height="62" fill="white"/>
</clipPath>
</defs>
</svg>
