<svg width="209" height="62" viewBox="0 0 209 62" fill="none" xmlns="http://www.w3.org/2000/svg">
<g clip-path="url(#clip0_3670_1561)">
<path d="M7.74074 0H201.259C205.594 0 209 3.41 209 7.75V54.25C209 58.59 205.594 62 201.259 62H7.74074C3.40593 62 0 58.59 0 54.25V7.75C0 3.41 3.40593 0 7.74074 0Z" fill="black"/>
<path d="M201.259 1.24C204.82 1.24 207.761 4.185 207.761 7.75V54.25C207.761 57.815 204.82 60.76 201.259 60.76H7.74074C4.18 60.76 1.23852 57.815 1.23852 54.25V7.75C1.23852 4.185 4.18 1.24 7.74074 1.24H201.259ZM201.259 0H7.74074C3.40593 0 0 3.41 0 7.75V54.25C0 58.59 3.40593 62 7.74074 62H201.259C205.594 62 209 58.59 209 54.25V7.75C209 3.41 205.594 0 201.259 0Z" fill="#173430"/>
<path d="M64.136 20V8.8H68.168C69.064 8.8 69.8053 8.95467 70.392 9.264C70.9787 9.56267 71.416 9.968 71.704 10.48C71.992 10.992 72.136 11.5787 72.136 12.24C72.136 12.8587 71.9973 13.4293 71.72 13.952C71.4427 14.464 71.0107 14.88 70.424 15.2C69.8373 15.5093 69.0853 15.664 68.168 15.664H66.056V20H64.136ZM66.056 14.096H68.056C68.8133 14.096 69.3573 13.9307 69.688 13.6C70.0187 13.2587 70.184 12.8053 70.184 12.24C70.184 11.6533 70.0187 11.1947 69.688 10.864C69.3573 10.5333 68.8133 10.368 68.056 10.368H66.056V14.096ZM73.5683 20V11.936H75.2803L75.4563 13.44C75.6483 13.088 75.8883 12.7893 76.1763 12.544C76.4643 12.288 76.8003 12.0907 77.1843 11.952C77.5789 11.8133 78.0109 11.744 78.4803 11.744V13.776H77.8083C77.4883 13.776 77.1843 13.8187 76.8963 13.904C76.6083 13.9787 76.3576 14.1067 76.1443 14.288C75.9416 14.4587 75.7816 14.6987 75.6643 15.008C75.5469 15.3067 75.4883 15.6853 75.4883 16.144V20H73.5683ZM83.3718 20.192C82.5718 20.192 81.8678 20.0213 81.2598 19.68C80.6518 19.328 80.1771 18.8373 79.8358 18.208C79.4944 17.5787 79.3238 16.8533 79.3238 16.032C79.3238 15.1787 79.4891 14.432 79.8198 13.792C80.1611 13.152 80.6358 12.6507 81.2438 12.288C81.8624 11.9253 82.5771 11.744 83.3878 11.744C84.1771 11.744 84.8651 11.92 85.4518 12.272C86.0384 12.624 86.4918 13.0987 86.8118 13.696C87.1318 14.2827 87.2918 14.944 87.2918 15.68C87.2918 15.7867 87.2918 15.904 87.2918 16.032C87.2918 16.16 87.2811 16.2933 87.2598 16.432H80.6998V15.2H85.3558C85.3344 14.6133 85.1371 14.1547 84.7638 13.824C84.3904 13.4827 83.9264 13.312 83.3718 13.312C82.9771 13.312 82.6144 13.4027 82.2838 13.584C81.9531 13.7653 81.6918 14.0373 81.4998 14.4C81.3078 14.752 81.2118 15.2 81.2118 15.744V16.208C81.2118 16.7093 81.3024 17.1413 81.4838 17.504C81.6758 17.8667 81.9318 18.144 82.2518 18.336C82.5824 18.5173 82.9504 18.608 83.3558 18.608C83.8038 18.608 84.1718 18.512 84.4598 18.32C84.7584 18.128 84.9771 17.872 85.1158 17.552H87.0678C86.9184 18.0533 86.6731 18.5067 86.3318 18.912C85.9904 19.3067 85.5691 19.6213 85.0678 19.856C84.5664 20.08 84.0011 20.192 83.3718 20.192ZM91.8965 20.192C91.2458 20.192 90.6858 20.064 90.2165 19.808C89.7578 19.5413 89.4058 19.1467 89.1605 18.624C88.9152 18.0907 88.7925 17.4347 88.7925 16.656V11.936H90.7125V16.464C90.7125 17.1573 90.8565 17.6853 91.1445 18.048C91.4432 18.4 91.8912 18.576 92.4885 18.576C92.8725 18.576 93.2138 18.4853 93.5125 18.304C93.8218 18.1227 94.0618 17.8613 94.2325 17.52C94.4138 17.168 94.5045 16.7413 94.5045 16.24V11.936H96.4245V20H94.7285L94.5845 18.656C94.3392 19.1253 93.9818 19.4987 93.5125 19.776C93.0538 20.0533 92.5152 20.192 91.8965 20.192ZM97.8728 20V18.448L102.049 13.536H97.9368V11.936H104.257V13.488L100.033 18.416H104.337V20H97.8728ZM105.944 20V11.936H107.64L107.8 13.04C108.056 12.6347 108.392 12.32 108.808 12.096C109.235 11.8613 109.72 11.744 110.264 11.744C110.669 11.744 111.032 11.7973 111.352 11.904C111.683 12.0107 111.971 12.1707 112.216 12.384C112.472 12.5973 112.68 12.864 112.84 13.184C113.139 12.736 113.528 12.384 114.008 12.128C114.488 11.872 115.011 11.744 115.576 11.744C116.248 11.744 116.819 11.8827 117.288 12.16C117.757 12.4267 118.115 12.8267 118.36 13.36C118.605 13.8827 118.728 14.528 118.728 15.296V20H116.824V15.488C116.824 14.8053 116.685 14.2827 116.408 13.92C116.131 13.5573 115.72 13.376 115.176 13.376C114.803 13.376 114.472 13.4667 114.184 13.648C113.907 13.8293 113.688 14.096 113.528 14.448C113.368 14.7893 113.288 15.2107 113.288 15.712V20H111.384V15.488C111.384 14.8053 111.245 14.2827 110.968 13.92C110.691 13.5573 110.275 13.376 109.72 13.376C109.368 13.376 109.048 13.4667 108.76 13.648C108.483 13.8293 108.264 14.096 108.104 14.448C107.944 14.7893 107.864 15.2107 107.864 15.712V20H105.944ZM120.676 20V11.936H122.596V20H120.676ZM121.636 10.656C121.284 10.656 120.991 10.5493 120.756 10.336C120.532 10.112 120.42 9.84 120.42 9.52C120.42 9.18933 120.532 8.92267 120.756 8.72C120.991 8.50667 121.284 8.4 121.636 8.4C121.988 8.4 122.276 8.50667 122.5 8.72C122.735 8.92267 122.852 9.18933 122.852 9.52C122.852 9.84 122.735 10.112 122.5 10.336C122.276 10.5493 121.988 10.656 121.636 10.656ZM128.465 20V8.8H135.617V10.352H130.385V13.632H134.657V15.152H130.385V20H128.465ZM137.118 20V11.936H139.038V20H137.118ZM138.078 10.656C137.726 10.656 137.433 10.5493 137.198 10.336C136.974 10.112 136.862 9.84 136.862 9.52C136.862 9.18933 136.974 8.92267 137.198 8.72C137.433 8.50667 137.726 8.4 138.078 8.4C138.43 8.4 138.718 8.50667 138.942 8.72C139.177 8.92267 139.294 9.18933 139.294 9.52C139.294 9.84 139.177 10.112 138.942 10.336C138.718 10.5493 138.43 10.656 138.078 10.656ZM144.601 20C144.057 20 143.582 19.9147 143.177 19.744C142.782 19.5733 142.473 19.2907 142.249 18.896C142.025 18.5013 141.913 17.968 141.913 17.296V13.552H140.537V11.936H141.913L142.137 9.808H143.833V11.936H146.025V13.552H143.833V17.296C143.833 17.7013 143.918 17.984 144.089 18.144C144.27 18.2933 144.569 18.368 144.985 18.368H145.977V20H144.601ZM148.647 23.52L150.615 19.104H150.135L146.919 11.936H149.015L151.415 17.408L153.687 11.936H155.719L150.679 23.52H148.647ZM160.023 20L164.119 8.8H166.263L170.359 20H168.327L165.175 11.04L162.023 20H160.023ZM161.847 17.36L162.359 15.84H167.879L168.391 17.36H161.847ZM171.676 23.52V11.936H173.388L173.596 13.104C173.766 12.8693 173.969 12.6507 174.204 12.448C174.449 12.2347 174.742 12.064 175.084 11.936C175.436 11.808 175.836 11.744 176.284 11.744C177.041 11.744 177.708 11.9307 178.284 12.304C178.87 12.6773 179.329 13.184 179.66 13.824C179.99 14.4533 180.156 15.1733 180.156 15.984C180.156 16.7947 179.985 17.52 179.644 18.16C179.313 18.7893 178.854 19.2853 178.268 19.648C177.692 20.0107 177.03 20.192 176.284 20.192C175.676 20.192 175.142 20.08 174.684 19.856C174.236 19.6213 173.873 19.2907 173.596 18.864V23.52H171.676ZM175.884 18.528C176.332 18.528 176.732 18.4213 177.084 18.208C177.436 17.9947 177.708 17.696 177.9 17.312C178.102 16.928 178.204 16.4853 178.204 15.984C178.204 15.472 178.102 15.024 177.9 14.64C177.708 14.256 177.436 13.9573 177.084 13.744C176.732 13.5307 176.332 13.424 175.884 13.424C175.425 13.424 175.02 13.5307 174.668 13.744C174.326 13.9573 174.054 14.256 173.852 14.64C173.66 15.024 173.564 15.4667 173.564 15.968C173.564 16.48 173.66 16.928 173.852 17.312C174.054 17.6853 174.326 17.984 174.668 18.208C175.02 18.4213 175.425 18.528 175.884 18.528ZM181.859 23.52V11.936H183.571L183.779 13.104C183.95 12.8693 184.153 12.6507 184.387 12.448C184.633 12.2347 184.926 12.064 185.267 11.936C185.619 11.808 186.019 11.744 186.467 11.744C187.225 11.744 187.891 11.9307 188.467 12.304C189.054 12.6773 189.513 13.184 189.843 13.824C190.174 14.4533 190.339 15.1733 190.339 15.984C190.339 16.7947 190.169 17.52 189.827 18.16C189.497 18.7893 189.038 19.2853 188.451 19.648C187.875 20.0107 187.214 20.192 186.467 20.192C185.859 20.192 185.326 20.08 184.867 19.856C184.419 19.6213 184.057 19.2907 183.779 18.864V23.52H181.859ZM186.067 18.528C186.515 18.528 186.915 18.4213 187.267 18.208C187.619 17.9947 187.891 17.696 188.083 17.312C188.286 16.928 188.387 16.4853 188.387 15.984C188.387 15.472 188.286 15.024 188.083 14.64C187.891 14.256 187.619 13.9573 187.267 13.744C186.915 13.5307 186.515 13.424 186.067 13.424C185.609 13.424 185.203 13.5307 184.851 13.744C184.51 13.9573 184.238 14.256 184.035 14.64C183.843 15.024 183.747 15.4667 183.747 15.968C183.747 16.48 183.843 16.928 184.035 17.312C184.238 17.6853 184.51 17.984 184.851 18.208C185.203 18.4213 185.609 18.528 186.067 18.528Z" fill="white"/>
<path d="M105.429 33.79C101.868 33.79 98.9269 36.735 98.9269 40.455C98.9269 44.02 101.868 46.965 105.584 46.965C109.145 46.965 112.086 44.02 112.086 40.455C112.086 36.89 109.299 33.945 105.739 33.79C105.584 33.635 105.584 33.635 105.429 33.79ZM105.429 44.33C103.262 44.485 101.249 42.78 101.094 40.61C100.939 38.44 102.642 36.425 104.81 36.27C106.977 36.115 108.99 37.82 109.145 39.99V40.3C109.299 42.47 107.751 44.175 105.429 44.33C105.584 44.33 105.584 44.33 105.429 44.33ZM91.0313 33.79C87.4706 33.79 84.5291 36.735 84.5291 40.455C84.5291 44.02 87.4706 46.965 91.1861 46.965C94.7469 46.965 97.6883 44.02 97.6883 40.455C97.6883 36.89 94.9017 33.945 91.3409 33.79C91.1861 33.635 91.1861 33.635 91.0313 33.79ZM91.0313 44.33C88.8639 44.485 86.8513 42.78 86.6965 40.61C86.5417 38.44 88.2446 36.425 90.412 36.27C92.5795 36.115 94.592 37.82 94.7469 39.99V40.3C94.9017 42.47 93.1987 44.175 91.0313 44.33ZM73.8469 35.805V38.595H80.5039C80.3491 39.835 79.8846 41.075 78.9557 42.16C77.5624 43.555 75.7046 44.33 73.8469 44.175C69.6669 44.175 66.4157 40.92 66.4157 36.735C66.4157 32.55 69.6669 29.295 73.8469 29.295C75.7046 29.295 77.5624 29.915 78.9557 31.31L80.9683 29.295C79.1106 27.435 76.6335 26.35 74.0017 26.35C68.4283 26.195 63.6291 30.535 63.3195 36.115C63.1646 41.695 67.4994 46.5 73.0728 46.81H73.8469C76.4787 46.965 79.1106 45.88 80.9683 44.02C82.5165 42.16 83.4454 39.835 83.4454 37.51C83.4454 36.89 83.4454 36.27 83.2906 35.805H73.8469ZM144.133 37.975C143.359 35.495 141.036 33.945 138.559 33.79C135.154 33.79 132.367 36.58 132.367 39.99V40.455C132.367 44.02 135.154 46.965 138.714 46.965H139.024C141.191 46.965 143.359 45.88 144.442 44.02L142.275 42.47C141.656 43.555 140.417 44.33 139.024 44.33C137.631 44.33 136.392 43.555 135.773 42.315L144.597 38.75L144.133 37.975ZM134.999 40.145C134.844 38.13 136.392 36.425 138.405 36.27C139.488 36.27 140.417 36.735 140.882 37.665L134.999 40.145ZM127.877 46.5H130.819V27.125H127.877V46.5ZM123.233 35.185C122.304 34.255 120.911 33.635 119.672 33.635C116.111 33.79 113.17 36.89 113.479 40.61C113.634 44.02 116.421 46.655 119.672 46.81C121.065 46.81 122.304 46.19 123.078 45.26H123.233V46.19C123.233 48.67 121.839 50.065 119.672 50.065C118.124 50.065 116.885 49.135 116.421 47.74L113.944 48.825C114.873 51.15 117.195 52.7 119.827 52.7C123.233 52.7 126.019 50.685 126.019 45.88V34.1H123.388V35.185H123.233ZM119.827 44.33C117.659 44.175 115.956 42.16 116.111 39.99C116.266 37.975 117.814 36.58 119.827 36.27C121.839 36.425 123.388 38.13 123.388 40.145V40.3C123.542 42.315 121.994 44.175 119.982 44.33H119.827ZM157.602 27.125H150.635V46.5H153.576V39.215H157.602C160.853 39.525 163.794 36.89 164.104 33.635C164.414 30.38 161.782 27.435 158.531 27.125H157.602ZM157.602 36.425H153.576V29.76H157.756C159.614 29.76 161.008 31.31 161.008 33.015C161.008 34.72 159.459 36.425 157.602 36.425ZM175.405 33.635C173.238 33.48 171.225 34.72 170.296 36.58L172.928 37.665C173.393 36.735 174.476 36.115 175.56 36.27C177.108 36.115 178.502 37.2 178.656 38.75V38.905C177.728 38.44 176.644 38.13 175.715 38.13C172.928 38.13 170.142 39.68 170.142 42.47C170.296 44.95 172.309 46.81 174.786 46.81H174.941C176.489 46.965 177.882 46.19 178.656 44.95H178.811V46.5H181.598V39.06C181.443 35.65 178.811 33.635 175.405 33.635ZM175.096 44.175C174.167 44.175 172.774 43.71 172.774 42.47C172.774 40.92 174.476 40.455 175.87 40.455C176.799 40.455 177.728 40.61 178.502 41.075C178.347 42.935 176.954 44.33 175.096 44.175ZM191.506 34.1L188.255 42.47H188.1L184.694 34.1H181.598L186.707 45.88L183.765 52.39H186.707L194.602 34.1H191.506ZM165.497 46.5H168.439V27.125H165.497V46.5Z" fill="white"/>
<path d="M16.1009 11.625C15.6365 12.245 15.3269 13.02 15.4817 13.795V48.05C15.4817 48.825 15.6365 49.6 16.2558 50.22L16.4106 50.375L35.6076 31.155V30.69L16.1009 11.625Z" fill="url(#paint0_linear_3670_1561)"/>
<path d="M41.8 37.665L35.4526 31.31V30.845L41.8 24.49H41.9549L49.5408 28.83C51.7082 30.07 51.7082 32.085 49.5408 33.325L41.9549 37.665H41.8Z" fill="url(#paint1_linear_3670_1561)"/>
<path d="M41.9547 37.51L35.4524 31L16.1006 50.375C17.0295 51.15 18.4228 51.15 19.3517 50.53L41.9547 37.51Z" fill="url(#paint2_linear_3670_1561)"/>
<path d="M41.9547 24.49L19.3517 11.625C18.4228 10.85 17.0295 10.85 16.1006 11.625L35.4524 31L41.9547 24.49Z" fill="url(#paint3_linear_3670_1561)"/>
<path opacity="0.2" d="M41.7998 37.355L19.3517 50.065C18.4228 50.685 17.1843 50.685 16.2554 50.065L16.1006 50.22L16.2554 50.375C17.1843 50.995 18.4228 50.995 19.3517 50.375L41.9547 37.51L41.7998 37.355Z" fill="black"/>
<path opacity="0.12" d="M16.1007 50.065C15.6363 49.445 15.3267 48.67 15.3267 47.895V48.205C15.3267 48.98 15.4815 49.755 16.1007 50.375V50.065ZM49.5407 33.015L41.8 37.355L41.9548 37.51L49.5407 33.17C50.4696 32.705 50.9341 31.93 51.0889 31C50.9341 31.93 50.3148 32.55 49.5407 33.015Z" fill="black"/>
<path opacity="0.25" d="M19.3518 11.78L49.5407 28.985C50.3148 29.45 50.934 30.07 51.0889 31C50.934 30.07 50.4696 29.14 49.5407 28.83L19.3518 11.625C17.1844 10.385 15.4814 11.47 15.4814 13.795V13.95C15.4814 11.625 17.1844 10.54 19.3518 11.78Z" fill="white"/>
</g>
<defs>
<linearGradient id="paint0_linear_3670_1561" x1="33.7529" y1="13.5036" x2="7.74394" y2="39.4815" gradientUnits="userSpaceOnUse">
<stop stop-color="#00A0FF"/>
<stop offset="0.01" stop-color="#00A1FF"/>
<stop offset="0.26" stop-color="#00BEFF"/>
<stop offset="0.51" stop-color="#00D2FF"/>
<stop offset="0.76" stop-color="#00DFFF"/>
<stop offset="1" stop-color="#00E3FF"/>
</linearGradient>
<linearGradient id="paint1_linear_3670_1561" x1="52.3739" y1="31" x2="14.9242" y2="31" gradientUnits="userSpaceOnUse">
<stop stop-color="#FFE000"/>
<stop offset="0.41" stop-color="#FFBD00"/>
<stop offset="0.78" stop-color="#FFA500"/>
<stop offset="1" stop-color="#FF9C00"/>
</linearGradient>
<linearGradient id="paint2_linear_3670_1561" x1="38.4373" y1="34.5619" x2="3.15777" y2="69.7822" gradientUnits="userSpaceOnUse">
<stop stop-color="#FF3A44"/>
<stop offset="1" stop-color="#C31162"/>
</linearGradient>
<linearGradient id="paint3_linear_3670_1561" x1="11.2982" y1="0.283662" x2="27.0447" y2="16.0113" gradientUnits="userSpaceOnUse">
<stop stop-color="#32A071"/>
<stop offset="0.07" stop-color="#2DA771"/>
<stop offset="0.48" stop-color="#15CF74"/>
<stop offset="0.8" stop-color="#06E775"/>
<stop offset="1" stop-color="#00F076"/>
</linearGradient>
<clipPath id="clip0_3670_1561">
<rect width="209" height="62" fill="white"/>
</clipPath>
</defs>
</svg>
