<svg width="26" height="25" viewBox="0 0 26 25" fill="none" xmlns="http://www.w3.org/2000/svg">
<path d="M3.4458 4.50826C5.97913 1.97492 10.3958 1.9593 12.9323 4.4968C12.9573 4.5218 12.9805 4.54819 13.002 4.57597C14.451 3.45305 16.1198 2.61138 17.9781 2.60722C18.8337 2.60411 19.6814 2.77051 20.4724 3.0968C21.2634 3.42308 21.9819 3.9028 22.5864 4.50826C23.1687 5.09159 23.652 5.7218 23.9823 6.51034C24.3125 7.29888 24.4718 8.19472 24.4698 9.2843C24.4698 12.3801 22.3375 15.3343 20.0229 17.6947C17.8375 19.9239 15.3281 21.7822 13.8 22.9124L13.476 23.152C13.3411 23.2527 13.1772 23.3071 13.0088 23.3071C12.8404 23.3071 12.6766 23.2527 12.5416 23.152L12.2166 22.9124C10.6895 21.7822 8.18017 19.9239 5.99476 17.6947C3.68226 15.3374 1.55309 12.3874 1.54684 9.29576C1.51927 8.41033 1.67356 7.52866 2.00018 6.70521C2.3268 5.88177 2.8188 5.13405 3.4458 4.50826ZM11.8135 5.59367C9.89059 3.68326 6.47601 3.69472 4.55413 5.61659C4.07334 6.09475 3.69711 6.66757 3.4493 7.29875C3.20149 7.92993 3.0875 8.60571 3.11455 9.28326C3.11455 11.7124 4.8333 14.2728 7.11351 16.5978C9.14163 18.6666 11.4718 20.4103 13.0093 21.5478C13.7689 20.9897 14.5186 20.4185 15.2583 19.8343L13.0291 17.778C12.9535 17.7083 12.8923 17.6243 12.8491 17.5309C12.8059 17.4375 12.7816 17.3365 12.7774 17.2337C12.7732 17.1309 12.7894 17.0282 12.8249 16.9316C12.8604 16.8351 12.9146 16.7464 12.9843 16.6708C13.0541 16.5951 13.1381 16.5339 13.2315 16.4908C13.3249 16.4476 13.4259 16.4232 13.5287 16.419C13.6315 16.4149 13.7342 16.431 13.8308 16.4665C13.9273 16.502 14.016 16.5562 14.0916 16.626L16.4823 18.8322C17.1239 18.2905 17.776 17.7072 18.4093 17.0905L16.1593 15.0155C16.0142 14.8727 15.9304 14.6789 15.9255 14.4753C15.9207 14.2718 15.9952 14.0743 16.1334 13.9246C16.2715 13.775 16.4624 13.6849 16.6657 13.6735C16.8691 13.6621 17.0689 13.7302 17.2229 13.8635L19.502 15.9676C20.0736 15.3504 20.6053 14.6973 21.0937 14.0124L20.4843 13.402L18.7645 11.6812C17.6416 10.5624 15.8093 10.5822 14.6656 11.726C14.2708 12.1218 13.8739 12.5155 13.4864 12.8989C12.2989 14.0697 10.4031 14.0208 9.24684 12.8541C8.73781 12.3388 8.22566 11.8242 7.71038 11.3103C7.5709 11.1713 7.48911 10.9846 7.48138 10.7878C7.47366 10.591 7.54057 10.3985 7.66872 10.2489C7.91247 9.95999 8.17115 9.64992 8.44476 9.31867C9.41142 8.15201 10.552 6.77492 11.8135 5.59367ZM21.9437 12.6458C22.5468 11.5208 22.902 10.3885 22.902 9.28326C22.9041 8.3468 22.7687 7.66659 22.5375 7.11659C22.3083 6.56867 21.9635 6.10201 21.4781 5.61659C21.0201 5.15652 20.4751 4.79213 19.875 4.54462C19.2748 4.29712 18.6314 4.17145 17.9823 4.17492C16.2531 4.17909 14.5968 5.16555 13.0135 6.61867C11.7843 7.74784 10.6875 9.06972 9.69267 10.2708L9.32705 10.7114C9.67219 11.0572 10.017 11.4037 10.3614 11.751C10.6258 12.0233 10.9874 12.1795 11.3669 12.1854C11.7464 12.1912 12.1127 12.0462 12.3854 11.7822C12.7708 11.402 13.1645 11.0114 13.5573 10.6176C15.2885 8.88534 18.1125 8.81972 19.8698 10.5708C20.4531 11.152 21.0364 11.7374 21.5968 12.2978L21.9437 12.6458Z" fill="white"/>
</svg>
