<svg width="22" height="19" viewBox="0 0 22 19" fill="none" xmlns="http://www.w3.org/2000/svg">
<path d="M5.79167 5.33366H16.2083M5.79167 9.50033H9.95833M11 17.8337L6.83333 13.667H3.70833C3.1558 13.667 2.62589 13.4475 2.23519 13.0568C1.84449 12.6661 1.625 12.1362 1.625 11.5837V3.25033C1.625 2.69779 1.84449 2.16789 2.23519 1.77719C2.62589 1.38649 3.1558 1.16699 3.70833 1.16699H18.2917C18.8442 1.16699 19.3741 1.38649 19.7648 1.77719C20.1555 2.16789 20.375 2.69779 20.375 3.25033V11.5837C20.375 12.1362 20.1555 12.6661 19.7648 13.0568C19.3741 13.4475 18.8442 13.667 18.2917 13.667H15.1667L11 17.8337Z" stroke="white" stroke-width="1.8" stroke-linecap="round" stroke-linejoin="round"/>
</svg>
