<svg width="25" height="25" viewBox="0 0 25 25" fill="none" xmlns="http://www.w3.org/2000/svg">
<path d="M15.1041 12.5007C15.1041 13.1913 14.8298 13.8537 14.3414 14.3421C13.853 14.8305 13.1906 15.1048 12.5 15.1048C11.8093 15.1048 11.1469 14.8305 10.6586 14.3421C10.1702 13.8537 9.89581 13.1913 9.89581 12.5007C9.89581 11.81 10.1702 11.1476 10.6586 10.6592C11.1469 10.1709 11.8093 9.89648 12.5 9.89648C13.1906 9.89648 13.853 10.1709 14.3414 10.6592C14.8298 11.1476 15.1041 11.81 15.1041 12.5007Z" stroke="#19B888" stroke-width="1.5" stroke-linecap="round" stroke-linejoin="round"/>
<path d="M19.2708 11.9688V11.9792M5.72916 13.0104V13.0208" stroke="#19B888" stroke-width="1.66667" stroke-linecap="round" stroke-linejoin="round"/>
<path d="M16.6667 5.20905C19.25 5.20905 21.0312 5.60905 22.0135 5.91322C22.5792 6.08822 22.9167 6.62467 22.9167 7.21634V17.3778C22.9167 18.5393 21.6375 19.4132 20.4958 19.1976C19.5167 19.0132 18.2406 18.8643 16.6667 18.8643C11.7187 18.8643 10.5312 20.7455 3.27604 19.1455C2.93624 19.0685 2.63287 18.8779 2.41602 18.6052C2.19917 18.3324 2.08182 17.9939 2.08333 17.6455V7.20905C2.08333 6.19238 3.04166 5.45176 4.03958 5.64967C10.6219 6.95592 11.8969 5.20905 16.6667 5.20905Z" stroke="#19B888" stroke-width="1.5" stroke-linecap="round" stroke-linejoin="round"/>
</svg>
