<svg width="18" height="18" viewBox="0 0 18 18" fill="none" xmlns="http://www.w3.org/2000/svg">
<path d="M9.00008 0.666992C13.6026 0.666992 17.3334 4.39783 17.3334 9.00033C17.3334 13.6028 13.6026 17.3337 9.00008 17.3337C4.39758 17.3337 0.666748 13.6028 0.666748 9.00033C0.666748 4.39783 4.39758 0.666992 9.00008 0.666992ZM9.00008 2.33366C7.23197 2.33366 5.53628 3.03604 4.28604 4.28628C3.03579 5.53652 2.33341 7.23222 2.33341 9.00033C2.33341 10.7684 3.03579 12.4641 4.28604 13.7144C5.53628 14.9646 7.23197 15.667 9.00008 15.667C10.7682 15.667 12.4639 14.9646 13.7141 13.7144C14.9644 12.4641 15.6667 10.7684 15.6667 9.00033C15.6667 7.23222 14.9644 5.53652 13.7141 4.28628C12.4639 3.03604 10.7682 2.33366 9.00008 2.33366ZM9.00008 4.00033C9.20419 4.00035 9.4012 4.07529 9.55373 4.21092C9.70625 4.34655 9.8037 4.53345 9.82758 4.73616L9.83341 4.83366V8.65533L12.0892 10.9112C12.2387 11.0611 12.3255 11.2624 12.3319 11.474C12.3384 11.6856 12.2641 11.8918 12.124 12.0506C11.984 12.2094 11.7888 12.3089 11.578 12.329C11.3673 12.3491 11.1567 12.2882 10.9892 12.1587L10.9109 12.0895L8.41091 9.58949C8.2814 9.45986 8.19822 9.29116 8.17425 9.10949L8.16675 9.00033V4.83366C8.16675 4.61264 8.25455 4.40068 8.41083 4.2444C8.56711 4.08812 8.77907 4.00033 9.00008 4.00033Z" fill="#19B888"/>
</svg>
