<svg width="25" height="25" viewBox="0 0 25 25" fill="none" xmlns="http://www.w3.org/2000/svg">
<path d="M18.8127 9.71875C18.553 9.71875 18.3039 9.82191 18.1203 10.0055C17.9367 10.1892 17.8335 10.4382 17.8335 10.6979V15.1354C17.8335 15.3951 17.9367 15.6442 18.1203 15.8278C18.3039 16.0114 18.553 16.1146 18.8127 16.1146C19.0724 16.1146 19.3214 16.0114 19.505 15.8278C19.6887 15.6442 19.7918 15.3951 19.7918 15.1354V10.6979C19.7918 10.5693 19.7665 10.442 19.7173 10.3232C19.6681 10.2044 19.596 10.0965 19.505 10.0055C19.4141 9.91462 19.3062 9.84249 19.1874 9.79328C19.0686 9.74408 18.9412 9.71875 18.8127 9.71875ZM6.18766 9.71875C5.92797 9.71875 5.67892 9.82191 5.49529 10.0055C5.31166 10.1892 5.2085 10.4382 5.2085 10.6979V15.1354C5.2085 15.3951 5.31166 15.6442 5.49529 15.8278C5.67892 16.0114 5.92797 16.1146 6.18766 16.1146C6.44735 16.1146 6.69641 16.0114 6.88004 15.8278C7.06367 15.6442 7.16683 15.3951 7.16683 15.1354V10.6979C7.16683 10.4382 7.06367 10.1892 6.88004 10.0055C6.69641 9.82191 6.44735 9.71875 6.18766 9.71875ZM7.87516 9.71875V16.3854C7.87516 16.681 7.99259 16.9645 8.20162 17.1735C8.41064 17.3826 8.69414 17.5 8.98975 17.5H9.69808V19.8646C9.69808 20.1243 9.80124 20.3733 9.98487 20.557C10.1685 20.7406 10.4176 20.8437 10.6772 20.8437C10.9369 20.8437 11.186 20.7406 11.3696 20.557C11.5533 20.3733 11.6564 20.1243 11.6564 19.8646V17.5H13.3439V19.8646C13.3439 20.1243 13.4471 20.3733 13.6307 20.557C13.8143 20.7406 14.0634 20.8437 14.3231 20.8437C14.5828 20.8437 14.8318 20.7406 15.0155 20.557C15.1991 20.3733 15.3022 20.1243 15.3022 19.8646V17.5H16.0106C16.3062 17.5 16.5897 17.3826 16.7987 17.1735C17.0077 16.9645 17.1252 16.681 17.1252 16.3854V9.71875H7.87516Z" fill="#173430"/>
<path d="M17 8.33335C16.6935 7.30481 16.0136 6.428 15.0937 5.87501L14.9375 5.78126L14.7708 5.69793L14.9583 5.37501L15.5104 4.33335C15.5209 4.30367 15.5215 4.2714 15.5121 4.24136C15.5027 4.21132 15.4838 4.18512 15.4583 4.16668H15.3854C15.3588 4.16787 15.3328 4.17505 15.3094 4.18767C15.2859 4.20029 15.2656 4.21804 15.25 4.2396L14.6875 5.20835L14.5104 5.53126L14.3437 5.45835L14.1667 5.39585C13.0871 5.02119 11.9129 5.02119 10.8333 5.39585L10.6667 5.45835L10.4896 5.53126L10.3125 5.20835L9.75 4.16668C9.74042 4.14958 9.72757 4.13454 9.71218 4.1224C9.69679 4.11027 9.67916 4.10129 9.6603 4.09597C9.64144 4.09065 9.62172 4.08909 9.60225 4.0914C9.58279 4.0937 9.56397 4.09981 9.54687 4.10939C9.52978 4.11896 9.51473 4.13181 9.5026 4.1472C9.49046 4.16259 9.48148 4.18022 9.47616 4.19909C9.47084 4.21795 9.46929 4.23767 9.47159 4.25714C9.47389 4.2766 9.48001 4.29541 9.48958 4.31251L10.0417 5.35418L10.2292 5.6771L10.0625 5.76043L9.90625 5.85418C8.98206 6.40944 8.30413 7.29596 8.01042 8.33335C7.92912 8.60403 7.88359 8.88418 7.875 9.16668H17.125C17.1148 8.88509 17.0728 8.60555 17 8.33335ZM10.4167 7.78126C10.3343 7.78126 10.2537 7.75683 10.1852 7.71104C10.1167 7.66526 10.0633 7.60018 10.0317 7.52405C10.0002 7.44791 9.99193 7.36413 10.008 7.28331C10.0241 7.20248 10.0638 7.12824 10.122 7.06997C10.1803 7.0117 10.2546 6.97201 10.3354 6.95594C10.4162 6.93986 10.5 6.94811 10.5761 6.97965C10.6523 7.01118 10.7173 7.06459 10.7631 7.13311C10.8089 7.20163 10.8333 7.28219 10.8333 7.3646C10.8333 7.4751 10.7894 7.58108 10.7113 7.65922C10.6332 7.73737 10.5272 7.78126 10.4167 7.78126ZM14.5833 7.78126C14.5009 7.78126 14.4204 7.75683 14.3518 7.71104C14.2833 7.66526 14.2299 7.60018 14.1984 7.52405C14.1668 7.44791 14.1586 7.36413 14.1747 7.28331C14.1907 7.20248 14.2304 7.12824 14.2887 7.06997C14.347 7.0117 14.4212 6.97201 14.502 6.95594C14.5829 6.93986 14.6666 6.94811 14.7428 6.97965C14.8189 7.01118 14.884 7.06459 14.9298 7.13311C14.9756 7.20163 15 7.28219 15 7.3646C15 7.4751 14.9561 7.58108 14.878 7.65922C14.7998 7.73737 14.6938 7.78126 14.5833 7.78126Z" fill="#173430"/>
</svg>
