<svg width="20" height="20" viewBox="0 0 20 20" fill="none" xmlns="http://www.w3.org/2000/svg">
<path d="M13.6377 5.3461C12.0627 5.3461 11.397 6.09766 10.3002 6.09766C9.17555 6.09766 8.31774 5.35157 6.95289 5.35157C5.61695 5.35157 4.19234 6.16719 3.28765 7.55665C2.01734 9.51603 2.23296 13.2063 4.29039 16.35C5.02633 17.4754 6.00914 18.7375 7.2982 18.7512H7.32164C8.44195 18.7512 8.77477 18.0176 10.3166 18.009H10.34C11.8588 18.009 12.1634 18.7469 13.2791 18.7469H13.3025C14.5916 18.7332 15.6271 17.3348 16.3631 16.2137C16.8927 15.4074 17.0896 15.0028 17.4959 14.0906C14.5197 12.961 14.0416 8.74181 16.9849 7.12423C16.0865 5.99923 14.824 5.34766 13.6338 5.34766L13.6377 5.3461Z" fill="#173430"/>
<path d="M13.2911 1.25C12.3536 1.31367 11.2599 1.91055 10.6193 2.68984C10.038 3.39609 9.5599 4.44375 9.7474 5.45977H9.8224C10.8208 5.45977 11.8427 4.85859 12.4396 4.08828C13.0146 3.35508 13.4505 2.31602 13.2911 1.25Z" fill="#173430"/>
</svg>
