<svg width="30" height="30" viewBox="0 0 30 30" fill="none" xmlns="http://www.w3.org/2000/svg">
<circle cx="15" cy="15" r="15" fill="#19B888"/>
<path d="M15.75 13.4248H19.125L18.75 14.9248H15.75V21.6748H14.25V14.9248H11.25V13.4248H14.25V12.0208C14.25 10.6836 14.3895 10.1983 14.6505 9.7093C14.9063 9.22616 15.3014 8.83106 15.7845 8.5753C16.2735 8.3143 16.7587 8.1748 18.096 8.1748C18.4875 8.1748 18.831 8.2123 19.125 8.2873V9.6748H18.096C17.103 9.6748 16.8008 9.7333 16.4918 9.8983C16.27 10.0142 16.0891 10.1953 15.9735 10.4173C15.8085 10.7256 15.75 11.0278 15.75 12.0208V13.4248Z" fill="white"/>
</svg>
