<svg width="62" height="62" viewBox="0 0 62 62" fill="none" xmlns="http://www.w3.org/2000/svg">
<path d="M42.625 12.9166H52.7C53.1111 12.9166 53.5053 13.0799 53.796 13.3706C54.0867 13.6613 54.25 14.0555 54.25 14.4666V52.7C54.25 53.111 54.0867 53.5053 53.796 53.796C53.5053 54.0867 53.1111 54.25 52.7 54.25H9.3C8.88891 54.25 8.49467 54.0867 8.20398 53.796C7.9133 53.5053 7.75 53.111 7.75 52.7V14.4666C7.75 14.0555 7.9133 13.6613 8.20398 13.3706C8.49467 13.0799 8.88891 12.9166 9.3 12.9166H19.375" stroke="#19B888" stroke-width="2" stroke-linecap="round" stroke-linejoin="round"/>
<path d="M31.0002 20.6666L28.4168 14.2083M18.0835 43.9166H43.9168M42.0542 16.3499L42.5838 13.1724C42.6119 13.003 42.6119 12.8302 42.5838 12.6609L42.0517 9.48338C41.8506 8.27786 41.2287 7.18265 40.2965 6.39232C39.3643 5.60198 38.1821 5.1677 36.9599 5.16663H25.043C23.8199 5.16648 22.6365 5.6002 21.7032 6.39065C20.7699 7.18109 20.1473 8.27699 19.9461 9.48338L19.4165 12.6609C19.3882 12.8302 19.3882 13.0031 19.4165 13.1724L19.9461 16.3499C20.1473 17.5563 20.7699 18.6522 21.7032 19.4426C22.6365 20.233 23.8199 20.6668 25.043 20.6666H36.9573C38.1804 20.6668 39.3638 20.233 40.2971 19.4426C41.2304 18.6522 41.8531 17.5563 42.0542 16.3499Z" stroke="#19B888" stroke-width="2" stroke-linecap="round" stroke-linejoin="round"/>
</svg>
