<svg width="26" height="25" viewBox="0 0 26 25" fill="none" xmlns="http://www.w3.org/2000/svg">
<path d="M13 25C14.4062 25 15.6562 24.0625 15.9687 22.6562C16.125 22.1875 15.8125 21.875 15.3438 21.875H10.6562C10.1875 21.875 9.875 22.1875 10.0312 22.6562C10.3438 24.0625 11.5938 25 13 25ZM5.1875 7.8125C5.1875 3.4375 8.625 0 13 0C17.375 0 20.8125 3.4375 20.8125 7.8125V12.5L23.4688 16.5625C23.7812 16.875 23.9375 17.3438 23.9375 17.8125C23.9375 19.0625 22.8438 20.1562 21.5938 20.1562H4.40625C3.15625 20.3125 2.0625 19.2188 2.0625 17.9688C2.0625 17.5 2.21875 17.0312 2.53125 16.7188L5.1875 12.6563V7.8125Z" fill="white"/>
</svg>
