<svg width="58" height="58" viewBox="0 0 58 58" fill="none" xmlns="http://www.w3.org/2000/svg">
<path d="M48.3332 4.83331C48.3332 4.83331 43.4998 16.1626 43.4998 25.5466C43.4998 28.5529 44.5293 31.0662 45.9165 33.5699C47.5115 36.453 49.5826 39.3216 51.1027 42.9055C52.3086 45.7523 53.1665 49.0511 53.1665 53.1666M9.66651 4.83331C9.66651 4.83331 14.4998 16.1626 14.4998 25.5466C14.4998 28.5529 13.4703 31.0662 12.0832 33.5699C10.4882 36.453 8.41709 39.3216 6.89701 42.9055C5.51052 46.1475 4.80792 49.6407 4.83318 53.1666" stroke="#19B888" stroke-width="2" stroke-linecap="round" stroke-linejoin="round"/>
<path d="M13.2917 31.4166H21.75M43.5 31.4166H31.4167M14.5 26.5833H29M43.5 26.5833H38.6667M50.75 42.2916C36.25 42.2916 30.2083 49.5416 29 53.1666C27.7917 49.5416 21.75 42.2916 7.25 42.2916" stroke="#19B888" stroke-width="2" stroke-linecap="round"/>
</svg>
