<svg width="30" height="30" viewBox="0 0 30 30" fill="none" xmlns="http://www.w3.org/2000/svg">
<circle cx="15" cy="15" r="15" fill="#19B888"/>
<path fill-rule="evenodd" clip-rule="evenodd" d="M16.6665 6.5C16.8875 6.5 17.0995 6.5878 17.2558 6.74408C17.412 6.90036 17.4998 7.11232 17.4998 7.33333C17.5003 8.1016 17.7659 8.84617 18.2517 9.44132C18.7376 10.0365 19.4139 10.4457 20.1665 10.6C20.3831 10.6442 20.5733 10.7726 20.6952 10.957C20.8171 11.1415 20.8607 11.3667 20.8165 11.5833C20.7723 11.7999 20.6439 11.9901 20.4595 12.112C20.275 12.2339 20.0498 12.2775 19.8332 12.2333C18.9648 12.0559 18.1594 11.6503 17.4998 11.0583V18.1667C17.4998 18.9908 17.2555 19.7963 16.7976 20.4815C16.3398 21.1667 15.689 21.7008 14.9277 22.0162C14.1663 22.3315 13.3285 22.414 12.5203 22.2533C11.712 22.0925 10.9696 21.6957 10.3869 21.1129C9.80418 20.5302 9.40734 19.7878 9.24657 18.9795C9.0858 18.1713 9.16831 17.3335 9.48367 16.5722C9.79904 15.8108 10.3331 15.16 11.0183 14.7022C11.7035 14.2444 12.5091 14 13.3332 14C13.5542 14 13.7661 14.0878 13.9224 14.2441C14.0787 14.4004 14.1665 14.6123 14.1665 14.8333C14.1665 15.0543 14.0787 15.2663 13.9224 15.4226C13.7661 15.5789 13.5542 15.6667 13.3332 15.6667C12.8387 15.6667 12.3554 15.8133 11.9442 16.088C11.5331 16.3627 11.2127 16.7531 11.0235 17.21C10.8343 17.6668 10.7847 18.1694 10.8812 18.6544C10.9777 19.1393 11.2158 19.5848 11.5654 19.9344C11.915 20.2841 12.3605 20.5222 12.8454 20.6186C13.3304 20.7151 13.8331 20.6656 14.2899 20.4764C14.7467 20.2871 15.1371 19.9667 15.4118 19.5556C15.6865 19.1445 15.8332 18.6611 15.8332 18.1667V7.33333C15.8332 7.11232 15.921 6.90036 16.0772 6.74408C16.2335 6.5878 16.4455 6.5 16.6665 6.5Z" fill="white"/>
</svg>
