<svg width="18" height="18" viewBox="0 0 18 18" fill="none" xmlns="http://www.w3.org/2000/svg">
<path fill-rule="evenodd" clip-rule="evenodd" d="M3.32999 15.3002C2.68552 15.3002 2.06744 15.0513 1.61172 14.6082C1.15601 14.1652 0.899994 13.5643 0.899994 12.9377V5.0627C0.899994 4.43612 1.15601 3.83521 1.61172 3.39216C2.06744 2.9491 2.68552 2.7002 3.32999 2.7002H14.67C15.3145 2.7002 15.9326 2.9491 16.3883 3.39216C16.844 3.83521 17.1 4.43612 17.1 5.0627V12.9377C17.1 13.5643 16.844 14.1652 16.3883 14.6082C15.9326 15.0513 15.3145 15.3002 14.67 15.3002H3.32999ZM5.45624 6.02345C5.37373 5.95495 5.27791 5.90326 5.17446 5.87146C5.07101 5.83966 4.96204 5.82839 4.85402 5.83832C4.746 5.84824 4.64113 5.87917 4.54565 5.92926C4.45016 5.97934 4.36599 6.04757 4.29815 6.12989C4.2303 6.21221 4.18016 6.30694 4.1507 6.40846C4.12123 6.50999 4.11305 6.61623 4.12663 6.72088C4.14021 6.82554 4.17527 6.92648 4.22975 7.0177C4.28422 7.10893 4.357 7.18859 4.44374 7.25195L7.48124 9.61523C7.91223 9.95072 8.44789 10.1335 8.99999 10.1335C9.5521 10.1335 10.0878 9.95072 10.5187 9.61523L13.5562 7.25273C13.6393 7.1881 13.7085 7.10819 13.7598 7.01756C13.8111 6.92694 13.8436 6.82738 13.8553 6.72456C13.867 6.62175 13.8578 6.51769 13.8282 6.41834C13.7986 6.31898 13.7491 6.22628 13.6826 6.14551C13.6161 6.06474 13.5339 5.99749 13.4407 5.94761C13.3475 5.89772 13.2451 5.86618 13.1393 5.85477C13.0336 5.84336 12.9266 5.85232 12.8244 5.88112C12.7222 5.90993 12.6268 5.95802 12.5437 6.02266L9.50624 8.38516C9.36258 8.49699 9.18403 8.55792 8.99999 8.55792C8.81596 8.55792 8.63741 8.49699 8.49374 8.38516L5.45624 6.02266V6.02345Z" fill="#19B888"/>
</svg>
